<svg xmlns="http://www.w3.org/2000/svg" viewBox="0 0 261.69 211.61"><g id="Calque_2" data-name="Calque 2"><g id="Calque_1-2" data-name="Calque 1"><g style="opacity:0.52"><path d="M183.89,131.28l31.5-2.2c0,.4-17,4.14-17,4.55l12.5-.87s-2.16,2.24-2.16,2.28.06,0,.06,0" style="fill:none;stroke:#c33;stroke-linecap:round;stroke-linejoin:round;stroke-width:0.5px"/><path d="M202.54,39.47,252,36s-23.74,1.41-23.69,2.2c0,0,10.31-1.17,10.34-.73" style="fill:none;stroke:#c33;stroke-linecap:round;stroke-linejoin:round;stroke-width:0.5px"/><path d="M65.24,1S67,.8,67,.84,52.7,3.49,52.7,3.49c0,.27,23.82-1.66,23.82-1.66.08,1.09-28.68,4.82-28.68,4.82L81.41,4.31c0,.3-39.5,6.18-39.5,6.18C42,11.69,97.58,6,97.63,6.59s-58.31,6.22-58.31,6.22,64-4.53,64-4.48c.07,1-67.29,8.55-67.29,8.55.22,3.26,104-7.85,104.07-7.27,0,0-106.59,9.35-106.58,9.43.24,3.45,165.35-11.56,165.35-11.56C198.94,8.6,34.39,15,34.68,19.22c0,0,163.65-16.49,164-11.46.18,2.51-166.07,13.83-166.07,13.83S210.52,2.12,211,9.11L30.67,22.78,220,9.54c.08,1.16-194.58,14.8-194.57,14.94.51,7.19,203.78-17.8,204-14.27,0,.41-203.74,13.35-203.47,17.23.17,2.48,209.2-23.11,209.79-14.67,0,0-215.16,13.08-214.91,16.63,0,0,216.71-16.68,216.82-15.17.52,7.49-210.35,15.64-210.33,16,.32,4.55,213.62-19.33,213.93-15,.38,5.42-212.72,16.23-212.72,16.23s214.08-16.17,214.16-15c.58,8.34-214.53,14.21-214.3,17.58L247.11,18.79l-221,19.44c.56,8,230.79-16.14,230.79-16.14.27,3.79-230,18.46-230,18.46s227.28-16,227.29-15.89C254.5,29.55,27.78,42,27.78,42s227.9-23.88,228.46-16c.6,8.72-223.85,12.45-223.52,17.25C33,47.74,253.51,24.08,253.78,27.84c.5,7.23-218.13,12.51-217.73,18.26.37,5.23,224.61-22.67,225.09-15.74.56,7.93-217.6,13.27-217.22,18.57S256.51,33.06,256.58,34.06c.28,4-208.29,15.1-208.29,15.1C48.32,49.48,250.34,35,250.34,35l-199,14.56S255.64,34,255.73,35.3c0,0-205.44,14.2-205.42,14.53,0,0,196.11-15.41,196.22-13.73.2,2.77-191.46,15.54-191.34,17.33,0,0,124.36-12.08,124.59-8.71L62.1,53.34c.23,3.31,113.6-12.7,113.93-8,0,0-114.72,8.27-114.49,11.55.33,4.77,120.75-10.49,120.89-8.46.21,3-115.16,8.76-115.07,10l122.35-8.55c.28,4-128.54,9.54-128.54,9.54.1,1.44,126.27-8.83,126.27-8.83.21,3-123.65,11.94-123.63,12.26.24,3.38,134-10.4,134.11-9.38.06.84-139.63,10.16-139.63,10.16s139.25-15.16,139.63-9.76c.21,3-139.83,10.78-139.83,10.81.36,5.15,142.12-9.94,142.12-9.94.06.92-137.16,8.6-137,10.89,0,.56,133.31-9.32,133.31-9.32S57.87,62.21,58.25,67.62c0,0,144.53-11.74,144.64-10.12L49.08,70.05,197.52,59.67c.09,1.27-145.89,9.75-145.75,11.83.19,2.76,154-16,154.41-10.8.29,4.2-161.12,14.82-161.12,14.82,0,.26,163.21-11.41,163.21-11.41C208.4,66,42.33,78.78,42.33,78.78c.19,2.78,163.22-14.45,163.43-11.43L34.58,82.19l171.32-12L31.71,84.51,208.14,72.17c.47,6.64-174.09,12.57-174.09,12.57.34,4.84,176.84-12.37,176.84-12.37S33.75,79.19,34.23,86c0,0,175.42-18.2,175.84-12.3.46,6.66-173.42,14.87-173.42,14.89.22,3.07,170.78-17.92,171.19-12,.16,2.24-176,10.68-175.62,15.72.27,3.87,185.33-15,185.47-13,0,0-182.9,13-182.88,13.15L210,80.26c.32,4.57-171.41,12.22-171.41,12.22.11,1.66,172-12.66,172-12,.07.89-166.94,14.17-166.94,14.17S213.86,79.13,214.11,82.69c0,0-173,14.13-172.88,15.61,0,0,172.54-15.21,172.76-12.08C214.36,91.51,41.35,96,41.66,100.4,41.81,102.63,218.91,88,218.91,88c.31,4.43-175.39,14.55-175.32,15.44l171.4-12c0,.41-170.48,14.07-170.48,14.07l171.57-12S48.45,102.81,48.84,108.34c.44,6.35,166.37-11.63,166.37-11.63C215.34,98.62,48.45,109,48.45,109l174.43-12.2c0,.51-179.9,9.26-179.44,15.79l172.31-12L47.07,113.21c.44,6.32,168.18-15.22,168.42-11.77l-164,14.19s165.65-15.86,166-11.61c.37,5.27-166.54,9-166.17,14.18.14,2,166.51-16.59,166.85-11.66.1,1.36-165.9,15.06-165.9,15.06.39,5.67,165-12.2,165.08-11.54.45,6.41-170.38,6.27-170,12.4.13,1.75,171.52-15.76,171.78-12,.31,4.38-171.73,8.69-171.48,12.25.39,5.56,176.65-17.28,177-12.38,0,0-179.4,13.29-179.21,16L223,113.91s-172.45,12-172.26,14.55C51,131.7,217.58,111.17,218,116.76l-171.36,12c.06.88,173.17-12.11,173.17-12.11L44.24,130l176.87-12.37s-177,9.3-176.72,12.9c0,0,179.48-13.5,179.54-12.56s-174.63,13-174.63,13c0,.35,173.37-12.13,173.37-12.13.22,3.22-175,14.2-174.94,14.52.32,4.54,167.86-11.74,167.86-11.74.16,2.3-167.51,9.76-167.28,13.14,0,0,175.39-12.87,175.43-12.27,0,0-183.06,10.26-182.81,13.82.45,6.49,178.23-14.53,178.38-12.48,0,0-178.7,15.27-178.65,16.11.18,2.44,180.3-13,180.33-12.61,0,0-177.86,14.79-177.8,15.68.34,4.8,130.34-10.8,130.46-9.13C173.73,135,42.92,141.47,43.24,146c0,0,131.07-13.69,131.38-9.19.3,4.31-136.58,5.59-136.24,10.39.06.86,141.9-11.46,142-9.93,0,0-145.41,5-145,10.18,0,0,145.1-15.77,145.49-10.18L34.65,149.75c.38,5.44,144.6-14.5,144.91-10.13,0,.61-139,5.53-138.65,10.47.32,4.51,135.53-9.48,135.53-9.48.36,5.22-141.86,8.11-141.66,11,0,.64,144.85-10.13,144.85-10.13,0,.54-145.25,9.18-145.06,12,0,.36,152.5-12.2,152.61-10.67L28.51,157c0,.83,159.6-11.16,159.6-11.16.3,4.25-163.32,7.8-162.88,14.06,0,0,162.71-16.25,163.05-11.4,0,0-159.74,7.4-159.42,12,0,0,157.5-16.51,157.89-11S27.22,162.25,27.22,162.25c.11,1.59,165.27-11.55,165.27-11.55s-170.42,9.94-170,15.51c0,0,171.81-12.48,171.84-12,.16,2.32-170.88,13.92-170.88,13.92L196.36,156c.46,6.59-179.58,11.45-179.37,14.44.33,4.86,179.29-19.95,179.8-12.57L14.85,172.75c.39,5.62,190.4-13.31,190.4-13.31L16.59,174c.22,3.21,188.13-19.82,188.6-13.19L10.62,175.65c.29,4.17,198.65-17.16,198.88-13.9.37,5.26-197.09,14.34-197.09,14.34l195.9-13.7c.31,4.45-196,7.22-195.52,13.73.44,6.29,191.1-13.37,191.1-13.37.14,2-197.83,17.36-197.83,17.36.22,3.09,200.49-14,200.49-14s-201.86,12.5-201.61,16c.34,4.92,206.17-17.09,206.35-14.43,0,0-208.6,12.57-208.36,16C3.24,188.19,211,169.21,211,169.21,211.16,171.74,1,184.29,1,184.29c.5,7.1,218.47-20.1,218.8-15.3,0,0-216.33,13.17-216.14,15.75C4.26,192.87,214.2,170,214.2,170S3.36,184.84,3.36,184.84c.41,5.85,214.87-15,214.87-15L4,185.18s212.8-19.38,213.12-14.9c.5,7.16-216.84,15.4-216.84,15.4.49,7.07,212.86-19.26,213.17-14.91L8.58,187.09c.47,6.76,213.71-14.94,213.71-14.94L7.42,191c.54,7.67,211.39-19.95,211.75-14.8.1,1.41-208.76,10.43-208.22,18.1.24,3.52,216.21-15.12,216.21-15.12.43,6.14-213.9,9.84-213.36,17.57C14.12,201.48,224,180.9,224,182.09c.16,2.24-203.64,15.2-203.54,16.62.38,5.44,202.84-18.47,203.14-14.21C223.76,186.19,37,200.2,37,200.2c.06.89,186.89-13.07,186.89-13.07,0,.36-181.12,10.08-180.79,14.84.29,4.2,183.22-13.41,183.26-12.81l-170.28,15c.19,2.68,160.27-16,160.61-11.23S66.35,206,66.35,206s150.27-15,150.58-10.53c.13,1.81-130.2,9.51-130,12.87l128.17-9-113.36,10s104.7-7.45,104.71-7.32c.25,3.56-93.26,7.05-93.2,7.88,0,.07,82.12-5.74,82.12-5.74s-61.36,4-61.22,6c0,0,52.82-4.22,52.86-3.69,0,0-30.68,2.24-30.63,3l13.19-.93" style="fill:none;stroke:#c33;stroke-linecap:round;stroke-linejoin:round;stroke-width:0.5px"/></g><path d="M193.47,53.27c29.82,11.83,39.71,87.81,11,82-84-17,41.58,32.93,18,58-30.66,32.62-244.8,13.39-218-10,93.39-81.49-4-84,43-111,52.75-30.29-68-14-9-59,33.76-25.74,43.67-3,88-3,38.1,0,111.32-11.88,133,17C275,48,135.47,30.27,193.47,53.27Z" style="fill:none;stroke:#ae3f49;stroke-miterlimit:10;stroke-width:2px;opacity:0.6"/></g></g></svg>