<svg xmlns="http://www.w3.org/2000/svg" viewBox="0 0 306.82 185.76"><g id="Calque_2" data-name="Calque 2"><g id="Calque_1-2" data-name="Calque 1"><g style="opacity:0.53"><path d="M96.55,156.83c.59,8.43,149-10.41,149-10.41l-88,10.76L253,150.5l-78,7.05,83.22-5.82-63.11,8c.13,1.84,65.17-7.53,65.37-4.57,0,0-51.55,3.77-51.43,5.39l58.55-4.09s-53.28.58-53,3.9c0,0,51.71-7.13,52-3.63,0,0-19.41,5.2-19.31,6.58l29.32-2L254,163.8c.06.87,19.86-2.18,19.92-1.39,0,.15-1.21,3-1.19,3.2,0,0,6.14-.48,6.15-.43,0,.47-6.83,1.28-6.83,1.28l9.71-.68" style="fill:none;stroke:#226d53;stroke-linecap:round;stroke-linejoin:round;stroke-width:0.5px"/><path d="M240.56,98.67l57.69-4c0,.61-25.63,4.84-25.61,5.13.07,1,26.46-3.11,26.54-1.86l-20,2.57s14.3-1.67,14.35-1c0,0-12.56.62-12.51,1.28l6.7-.47" style="fill:none;stroke:#226d53;stroke-linecap:round;stroke-linejoin:round;stroke-width:0.5px"/><path d="M76.6,35.68l7.09-.5S72.28,37.69,72.3,38l21.28-1.48c.11,1.6-23.12,2.36-23.12,2.36,0,.28,19.88-1.39,19.88-1.39.09,1.35-20.82,2.69-20.82,2.69.12,1.71,23-2.16,23.09-1.62,0,0-26.63,5.83-26.53,7.34,0,0,34.2-4,34.31-2.4L67.06,45.9s37.15-3.17,37.19-2.6L63.84,49.45c.16,2.24,45.68-3.19,45.68-3.19.17,2.43-46.43,7.44-46.43,7.44.16,2.25,54.78-3.83,54.78-3.83L65.65,54.05l51.45-3.59s-57.07,3.07-56.94,5l61.89-4.32s-62,4.29-61.73,7.83c.32,4.49,66.28-7.68,66.5-4.65.27,3.84-56.84,3.29-56.69,5.37,0,0,58.84-6.59,59-4.13L65.92,62.1l68.42-4.79S70.32,62,70.4,63.13c0,0,71.32-7.73,71.51-5C142.18,62,65.75,65,65.75,65L205.46,55.2C206,62.66,71.65,69.5,71.65,69.5c.14,2,128.86-11.34,129-9,.1,1.36-120.86,10.07-120.86,10.07s121-16,121.56-8.5c.13,1.74-113.43,13-113.4,13.51C88.16,78.19,220.6,65,220.69,66.28,220.8,67.88,83,74.92,83.17,76.89L220.5,67.28C220.94,73.58,93,78.5,93.27,81.85c.54,7.75,146.6-14.18,146.87-10.27.06.94-149.81,7.84-149.59,11l157.53-11c.5,7.18-149,10.61-148.69,15.67,0,0,171.06-17,171.41-12,.36,5.19-174.57,13.38-174.57,13.38l177.6-12.42c.41,5.91-174.06,6.33-173.64,12.3,0,0,181.15-20.39,181.69-12.71l-183.94,17C98.08,94.85,296,79,296,79S102.76,93.14,102.83,94.16L295.41,80.69c1,14-201.15,3-200.37,14,0,0,202.29-21.1,202.78-14.18L98.21,98.85S305.26,74.16,306,84.32C306.4,90.43,95.12,95,95.75,104c.4,5.77,203.55-14.23,203.55-14.23.9,12.82-206.86,16.74-206.86,16.74C93,114,304.21,91.65,304.21,91.65L96.22,109s129.92-9.62,130-9.08c.64,9.17-139,10.46-139,10.46S224,91.85,224.61,100.78c.44,6.4-151.94,11.14-151.68,14.84l133.24-9.32c.54,7.64-141.43,6.84-141,12.94l144.66-10.11c.56,8-160.67,9.83-160.35,14.39.59,8.51,157-19.35,157.59-11,.11,1.52-169.75,15.27-169.75,15.27l165.16-11.55c.41,5.79-167.06,11.91-167.06,11.91S208,108.87,208.53,116c0,0-175.16,10-175,12.81.29,4.28,171.1-19,171.59-12,.06.9-187.47,5.28-186.73,15.93.67,9.53,187-19.2,187.46-13.11L21,133.84c.67,9.58,184.09-13.79,184.15-12.88,0,0-192.15,13.3-192,15.29.79,11.3,193-13.49,193-13.49l-198,17.13L214.8,125.43c.19,2.71-212.35,11.7-212,16.29l213.71-14.94c.38,5.33-207.77,6.81-207.23,14.51,0,0,209.18-22.6,209.73-14.66L4.71,145.71c.07,1,215-19.41,215.28-15.05,0,0-213.23,8.91-212.6,17.87,0,0,211.81-20.42,212.2-14.84L.25,153.09l230-16.08C230.7,143.6,4,144.47,4.71,154.32c.52,7.38,222.13-17.16,222.24-15.54.84,11.94-218.39,8.15-217.81,16.46,0,0,224-20.52,224.32-15.69,1.11,15.92-228.09,17.33-228.09,17.33C6.18,168.53,232.08,130,232.85,141c0,0-224.81,15.44-224.63,18l230.7-16.13S14.7,156.18,15,160.89c0,0,229.44-22.82,229.91-16.08.19,2.76-225.43,11-224.83,19.58l53.58-3.74c0,.37-45.44,6.93-45.41,7.3l52.92-3.7c.18,2.56-55.76,3.81-55.69,4.84.28,4.07,57.16-4,57.16-4,.22,3.14-52.44,4.38-52.44,4.38.31,4.44,56.1-3.93,56.1-3.93,0,.18-51.07,8-51.07,8s68.4-8.74,68.68-4.8c.06.91-63.18,4.78-63.18,4.78.27,3.83,69.74-8.62,70-4.89.19,2.67-64.24,7.29-64.24,7.29s71.37-9.72,71.7-5c.12,1.64-52.61,6.1-52.52,7.29,0,0,59.37-7.64,59.62-4.16.17,2.4-62.2,2.12-62,5.06,0,.44,69-4.82,69-4.82s-59.11,4-59,5.73c.29,4.21,63.89-7,64.06-4.48,0,0-59.25,1.9-59,4.95l54.36-3.8s-25.74,7-25.73,7.07,38.32-3.54,38.38-2.68c0,0-16.54,3.4-16.52,3.63,0,0,8.81-1.27,8.86-.62" style="fill:none;stroke:#226d53;stroke-linecap:round;stroke-linejoin:round;stroke-width:0.5px"/><path d="M198.82,1.65S208.05,1,208.06,1s-6.58.92-6.56,1.23A33.23,33.23,0,0,1,205.36,2c0,.25-4.48.51-4.47.64,0,.29,5.07-.35,5.07-.35,0,.17-5.61.29-5.6.44s3.69-.26,3.69-.26S200.61,3.75,200.63,4c0,0,10-1.49,10-.7L197.08,7.21,210,6.31s-16.12,3.46-16.12,3.5c0,.23,21.48-1.5,21.48-1.5s-24.19,4.36-24.18,4.5l23.94-1.68L191.54,18s25.54-2.28,25.57-1.79l-33.59,6.44s28.73-2.56,28.77-2c.08,1.19-28.78,5.11-28.73,5.81,0,.25,28.85-2.38,28.88-2,0,0-32.05,3.81-32,3.91,0,.59,31.2-2.19,31.2-2.19.09,1.22-35,8.2-35,8.2s36-2.88,36.06-2.52c0,0-34.37,5-34.32,5.66,0,0,26.88-4,27-1.89s-31.78,3.78-31.78,3.78c.17,2.37,28.9-4,29-2,.1,1.52-32.76,4-32.72,4.49l32.22-2.26c.07,1-29.25,5.9-29.16,7.06.06.93,31-2.17,31-2.17.12,1.78-32.8,5.85-32.8,5.85,0,.4,35.86-2.51,35.86-2.51S158.89,52,159,53.61c0,0,46.22-3.35,46.23-3.23l-54.06,7.43,53.28-3.72" style="fill:none;stroke:#226d53;stroke-linecap:round;stroke-linejoin:round;stroke-width:0.5px"/></g><path d="M305.82,85.89c0,31.34-75.27-.66-94,21-21.7,25.11,95.95,62.56,61,59-136.91-13.92-236.64-11.58-178,0,158.07,31.21-119.41,24.26-91-25,5.29-9.17,94-26.88,94-38,0-30.42-49.75-37.58-32-59,21.74-26.22,47,14,83,14,32.15,0,41.65-74.48,63-53,13.29,13.37-12.07,36.43-6,55C209.86,72.22,305.82,72.15,305.82,85.89Z" style="fill:none;stroke:#226153;stroke-miterlimit:10;stroke-width:2px;opacity:0.51"/></g></g></svg>